<svg xmlns="http://www.w3.org/2000/svg" viewBox="0 0 64 64" role="img" aria-label="Gear">
  <!-- Simple, generic gear silhouette (white) intended for CSS masking -->
  <g fill="#fff">
    <rect x="30" y="2" width="4" height="12" rx="2" transform="rotate(0 32 32)"/>
    <rect x="30" y="2" width="4" height="12" rx="2" transform="rotate(45 32 32)"/>
    <rect x="30" y="2" width="4" height="12" rx="2" transform="rotate(90 32 32)"/>
    <rect x="30" y="2" width="4" height="12" rx="2" transform="rotate(135 32 32)"/>
    <rect x="30" y="2" width="4" height="12" rx="2" transform="rotate(180 32 32)"/>
    <rect x="30" y="2" width="4" height="12" rx="2" transform="rotate(225 32 32)"/>
    <rect x="30" y="2" width="4" height="12" rx="2" transform="rotate(270 32 32)"/>
    <rect x="30" y="2" width="4" height="12" rx="2" transform="rotate(315 32 32)"/>

    <circle cx="32" cy="32" r="19"/>
    <circle cx="32" cy="32" r="9" fill="#000"/>
  </g>
</svg>
